{
	"asset":{
		"generator":"Khronos glTF Blender I/O v3.6.27",
		"version":"2.0"
	},
	"scene":0,
	"scenes":[
		{
			"name":"Scene",
			"nodes":[
				0,
				1,
				2,
				3
			]
		}
	],
	"nodes":[
		{
			"name":"Empty"
		},
		{
			"mesh":0,
			"name":"Text.006",
			"rotation":[
				0.7071068286895752,
				0,
				0,
				0.7071068286895752
			],
			"scale":[
				4.035680770874023,
				3.4025442600250244,
				4.439536094665527
			],
			"translation":[
				0.028879821300506592,
				0.14569337666034698,
				-2.500492572784424
			]
		},
		{
			"mesh":1,
			"name":"Cube.121",
			"scale":[
				2.646273374557495,
				2.646273374557495,
				0.6521624326705933
			],
			"translation":[
				-0.0144929438829422,
				0.004891697317361832,
				-3.1214704513549805
			]
		},
		{
			"mesh":2,
			"name":"Cube.120",
			"scale":[
				2.646273374557495,
				2.646273374557495,
				0.6521624326705933
			],
			"translation":[
				-0.0144929438829422,
				0.004891697317361832,
				-3.1214704513549805
			]
		}
	],
	"materials":[
		{
			"doubleSided":true,
			"name":"Material.001",
			"pbrMetallicRoughness":{
				"baseColorFactor":[
					0.800000011920929,
					0.800000011920929,
					0.800000011920929,
					1
				],
				"metallicFactor":0,
				"roughnessFactor":0.2431192696094513
			}
		},
		{
			"doubleSided":true,
			"name":"ready 2.001",
			"pbrMetallicRoughness":{
				"baseColorFactor":[
					0.6653875112533569,
					0.08228270709514618,
					0.921582043170929,
					1
				],
				"metallicFactor":0,
				"roughnessFactor":0.296006441116333
			}
		},
		{
			"doubleSided":true,
			"name":"ready 2",
			"pbrMetallicRoughness":{
				"baseColorFactor":[
					0.06662595272064209,
					0.013702086172997952,
					0.09084172546863556,
					1
				],
				"metallicFactor":0,
				"roughnessFactor":0.296006441116333
			}
		}
	],
	"meshes":[
		{
			"name":"Text.001",
			"primitives":[
				{
					"attributes":{
						"POSITION":0,
						"NORMAL":1,
						"TEXCOORD_0":2
					},
					"indices":3,
					"material":0
				}
			]
		},
		{
			"name":"Mesh",
			"primitives":[
				{
					"attributes":{
						"POSITION":4,
						"NORMAL":5,
						"TEXCOORD_0":6
					},
					"indices":7,
					"material":1
				}
			]
		},
		{
			"name":"Mesh",
			"primitives":[
				{
					"attributes":{
						"POSITION":8,
						"NORMAL":9,
						"TEXCOORD_0":10
					},
					"indices":11,
					"material":2
				}
			]
		}
	],
	"accessors":[
		{
			"bufferView":0,
			"componentType":5126,
			"count":10642,
			"max":[
				0.48056361079216003,
				0.08999998867511749,
				0.26402607560157776
			],
			"min":[
				-0.48602941632270813,
				-0.08999998867511749,
				-0.2990223169326782
			],
			"type":"VEC3"
		},
		{
			"bufferView":1,
			"componentType":5126,
			"count":10642,
			"type":"VEC3"
		},
		{
			"bufferView":2,
			"componentType":5126,
			"count":10642,
			"type":"VEC2"
		},
		{
			"bufferView":3,
			"componentType":5123,
			"count":60192,
			"type":"SCALAR"
		},
		{
			"bufferView":4,
			"componentType":5126,
			"count":13182,
			"max":[
				0.9990044832229614,
				0.9990044832229614,
				0.9661110639572144
			],
			"min":[
				-0.9990044832229614,
				-0.9990044832229614,
				-0.9661110639572144
			],
			"type":"VEC3"
		},
		{
			"bufferView":5,
			"componentType":5126,
			"count":13182,
			"type":"VEC3"
		},
		{
			"bufferView":6,
			"componentType":5126,
			"count":13182,
			"type":"VEC2"
		},
		{
			"bufferView":7,
			"componentType":5123,
			"count":73728,
			"type":"SCALAR"
		},
		{
			"bufferView":8,
			"componentType":5126,
			"count":6677,
			"max":[
				0.9982653260231018,
				0.9982653260231018,
				0.9982653260231018
			],
			"min":[
				-0.9982653260231018,
				-0.9982653260231018,
				-0.9982653260231018
			],
			"type":"VEC3"
		},
		{
			"bufferView":9,
			"componentType":5126,
			"count":6677,
			"type":"VEC3"
		},
		{
			"bufferView":10,
			"componentType":5126,
			"count":6677,
			"type":"VEC2"
		},
		{
			"bufferView":11,
			"componentType":5123,
			"count":36864,
			"type":"SCALAR"
		}
	],
	"bufferViews":[
		{
			"buffer":0,
			"byteLength":127704,
			"byteOffset":0,
			"target":34962
		},
		{
			"buffer":0,
			"byteLength":127704,
			"byteOffset":127704,
			"target":34962
		},
		{
			"buffer":0,
			"byteLength":85136,
			"byteOffset":255408,
			"target":34962
		},
		{
			"buffer":0,
			"byteLength":120384,
			"byteOffset":340544,
			"target":34963
		},
		{
			"buffer":0,
			"byteLength":158184,
			"byteOffset":460928,
			"target":34962
		},
		{
			"buffer":0,
			"byteLength":158184,
			"byteOffset":619112,
			"target":34962
		},
		{
			"buffer":0,
			"byteLength":105456,
			"byteOffset":777296,
			"target":34962
		},
		{
			"buffer":0,
			"byteLength":147456,
			"byteOffset":882752,
			"target":34963
		},
		{
			"buffer":0,
			"byteLength":80124,
			"byteOffset":1030208,
			"target":34962
		},
		{
			"buffer":0,
			"byteLength":80124,
			"byteOffset":1110332,
			"target":34962
		},
		{
			"buffer":0,
			"byteLength":53416,
			"byteOffset":1190456,
			"target":34962
		},
		{
			"buffer":0,
			"byteLength":73728,
			"byteOffset":1243872,
			"target":34963
		}
	],
	"buffers":[
		{
			"byteLength":1317600,
			"uri":"data:application/octet-stream;base64,"
		}
	]
}
