{
	"asset":{
		"generator":"Khronos glTF Blender I/O v3.6.27",
		"version":"2.0"
	},
	"scene":0,
	"scenes":[
		{
			"name":"Scene",
			"nodes":[
				0,
				3
			]
		}
	],
	"nodes":[
		{
			"name":"Empty"
		},
		{
			"mesh":0,
			"name":"Cube.021"
		},
		{
			"mesh":1,
			"name":"Text.012",
			"rotation":[
				0.7071067094802856,
				0,
				0,
				0.7071068286895752
			],
			"scale":[
				1.3760335445404053,
				4.707550525665283,
				1.5137351751327515
			],
			"translation":[
				0.016388550400733948,
				-0.007745307870209217,
				0.9521826505661011
			]
		},
		{
			"children":[
				1,
				2
			],
			"mesh":2,
			"name":"Cube.022",
			"scale":[
				2.712538480758667,
				2.712538480758667,
				0.6684930920600891
			]
		}
	],
	"materials":[
		{
			"doubleSided":true,
			"name":"ready 2.023",
			"pbrMetallicRoughness":{
				"baseColorFactor":[
					0.1094617024064064,
					0.9386860132217407,
					0.9386860132217407,
					1
				],
				"metallicFactor":0,
				"roughnessFactor":0.296006441116333
			}
		},
		{
			"doubleSided":true,
			"name":"ready 2.022",
			"pbrMetallicRoughness":{
				"baseColorFactor":[
					0.011134725995361805,
					0.02049514465034008,
					0.02771824784576893,
					1
				],
				"metallicFactor":0,
				"roughnessFactor":0.296006441116333
			}
		}
	],
	"meshes":[
		{
			"name":"Mesh",
			"primitives":[
				{
					"attributes":{
						"POSITION":0,
						"NORMAL":1,
						"TEXCOORD_0":2
					},
					"indices":3,
					"material":0
				}
			]
		},
		{
			"name":"Text.014",
			"primitives":[
				{
					"attributes":{
						"POSITION":4,
						"NORMAL":5,
						"TEXCOORD_0":6
					},
					"indices":7
				}
			]
		},
		{
			"name":"Mesh",
			"primitives":[
				{
					"attributes":{
						"POSITION":8,
						"NORMAL":9,
						"TEXCOORD_0":10
					},
					"indices":11,
					"material":1
				}
			]
		}
	],
	"accessors":[
		{
			"bufferView":0,
			"componentType":5126,
			"count":13178,
			"max":[
				0.9990044832229614,
				0.9990044832229614,
				0.9661110639572144
			],
			"min":[
				-0.9990044832229614,
				-0.9990044832229614,
				-0.9661110639572144
			],
			"type":"VEC3"
		},
		{
			"bufferView":1,
			"componentType":5126,
			"count":13178,
			"type":"VEC3"
		},
		{
			"bufferView":2,
			"componentType":5126,
			"count":13178,
			"type":"VEC2"
		},
		{
			"bufferView":3,
			"componentType":5123,
			"count":73728,
			"type":"SCALAR"
		},
		{
			"bufferView":4,
			"componentType":5126,
			"count":3096,
			"max":[
				0.37563130259513855,
				0.08999998867511749,
				0.2566656470298767
			],
			"min":[
				-0.32067257165908813,
				-0.08999998867511749,
				-0.2990223169326782
			],
			"type":"VEC3"
		},
		{
			"bufferView":5,
			"componentType":5126,
			"count":3096,
			"type":"VEC3"
		},
		{
			"bufferView":6,
			"componentType":5126,
			"count":3096,
			"type":"VEC2"
		},
		{
			"bufferView":7,
			"componentType":5123,
			"count":17256,
			"type":"SCALAR"
		},
		{
			"bufferView":8,
			"componentType":5126,
			"count":6677,
			"max":[
				0.9982653260231018,
				0.9982653260231018,
				0.9982653260231018
			],
			"min":[
				-0.9982653260231018,
				-0.9982653260231018,
				-0.9982653260231018
			],
			"type":"VEC3"
		},
		{
			"bufferView":9,
			"componentType":5126,
			"count":6677,
			"type":"VEC3"
		},
		{
			"bufferView":10,
			"componentType":5126,
			"count":6677,
			"type":"VEC2"
		},
		{
			"bufferView":11,
			"componentType":5123,
			"count":36864,
			"type":"SCALAR"
		}
	],
	"bufferViews":[
		{
			"buffer":0,
			"byteLength":158136,
			"byteOffset":0,
			"target":34962
		},
		{
			"buffer":0,
			"byteLength":158136,
			"byteOffset":158136,
			"target":34962
		},
		{
			"buffer":0,
			"byteLength":105424,
			"byteOffset":316272,
			"target":34962
		},
		{
			"buffer":0,
			"byteLength":147456,
			"byteOffset":421696,
			"target":34963
		},
		{
			"buffer":0,
			"byteLength":37152,
			"byteOffset":569152,
			"target":34962
		},
		{
			"buffer":0,
			"byteLength":37152,
			"byteOffset":606304,
			"target":34962
		},
		{
			"buffer":0,
			"byteLength":24768,
			"byteOffset":643456,
			"target":34962
		},
		{
			"buffer":0,
			"byteLength":34512,
			"byteOffset":668224,
			"target":34963
		},
		{
			"buffer":0,
			"byteLength":80124,
			"byteOffset":702736,
			"target":34962
		},
		{
			"buffer":0,
			"byteLength":80124,
			"byteOffset":782860,
			"target":34962
		},
		{
			"buffer":0,
			"byteLength":53416,
			"byteOffset":862984,
			"target":34962
		},
		{
			"buffer":0,
			"byteLength":73728,
			"byteOffset":916400,
			"target":34963
		}
	],
	"buffers":[
		{
			"byteLength":990128,
			"uri":"data:application/octet-stream;base64,"
		}
	]
}
