{
	"asset":{
		"generator":"Khronos glTF Blender I/O v3.6.27",
		"version":"2.0"
	},
	"scene":0,
	"scenes":[
		{
			"name":"Scene",
			"nodes":[
				0,
				3
			]
		}
	],
	"nodes":[
		{
			"name":"Empty"
		},
		{
			"mesh":0,
			"name":"Cube.023"
		},
		{
			"mesh":1,
			"name":"Text.013",
			"rotation":[
				0.7071067094802856,
				0,
				0,
				0.7071068286895752
			],
			"scale":[
				1.5250427722930908,
				5.217327117919922,
				1.6776559352874756
			],
			"translation":[
				0.016390662640333176,
				-0.00774557376280427,
				0.9521822929382324
			]
		},
		{
			"children":[
				1,
				2
			],
			"mesh":2,
			"name":"Cube.024",
			"scale":[
				2.6582932472229004,
				2.6582932472229004,
				0.6551245450973511
			]
		}
	],
	"materials":[
		{
			"doubleSided":true,
			"name":"ready 2.023",
			"pbrMetallicRoughness":{
				"baseColorFactor":[
					0.05286065861582756,
					0.37626221776008606,
					0.9734456539154053,
					1
				],
				"metallicFactor":0,
				"roughnessFactor":0.296006441116333
			}
		},
		{
			"doubleSided":true,
			"name":"ready 2.022",
			"pbrMetallicRoughness":{
				"baseColorFactor":[
					0.01850022003054619,
					0.026241226121783257,
					0.04373503103852272,
					1
				],
				"metallicFactor":0,
				"roughnessFactor":0.296006441116333
			}
		}
	],
	"meshes":[
		{
			"name":"Mesh",
			"primitives":[
				{
					"attributes":{
						"POSITION":0,
						"NORMAL":1,
						"TEXCOORD_0":2
					},
					"indices":3,
					"material":0
				}
			]
		},
		{
			"name":"Text.015",
			"primitives":[
				{
					"attributes":{
						"POSITION":4,
						"NORMAL":5,
						"TEXCOORD_0":6
					},
					"indices":7
				}
			]
		},
		{
			"name":"Mesh",
			"primitives":[
				{
					"attributes":{
						"POSITION":8,
						"NORMAL":9,
						"TEXCOORD_0":10
					},
					"indices":11,
					"material":1
				}
			]
		}
	],
	"accessors":[
		{
			"bufferView":0,
			"componentType":5126,
			"count":13182,
			"max":[
				0.9990044832229614,
				0.9990044832229614,
				0.9661110639572144
			],
			"min":[
				-0.9990044832229614,
				-0.9990044832229614,
				-0.9661110639572144
			],
			"type":"VEC3"
		},
		{
			"bufferView":1,
			"componentType":5126,
			"count":13182,
			"type":"VEC3"
		},
		{
			"bufferView":2,
			"componentType":5126,
			"count":13182,
			"type":"VEC2"
		},
		{
			"bufferView":3,
			"componentType":5123,
			"count":73728,
			"type":"SCALAR"
		},
		{
			"bufferView":4,
			"componentType":5126,
			"count":20444,
			"max":[
				0.4520585834980011,
				0.08999998867511749,
				0.2640254497528076
			],
			"min":[
				-0.41596323251724243,
				-0.08999998867511749,
				-0.2990223169326782
			],
			"type":"VEC3"
		},
		{
			"bufferView":5,
			"componentType":5126,
			"count":20444,
			"type":"VEC3"
		},
		{
			"bufferView":6,
			"componentType":5126,
			"count":20444,
			"type":"VEC2"
		},
		{
			"bufferView":7,
			"componentType":5123,
			"count":116916,
			"type":"SCALAR"
		},
		{
			"bufferView":8,
			"componentType":5126,
			"count":6677,
			"max":[
				0.9982653260231018,
				0.9982653260231018,
				0.9982653260231018
			],
			"min":[
				-0.9982653260231018,
				-0.9982653260231018,
				-0.9982653260231018
			],
			"type":"VEC3"
		},
		{
			"bufferView":9,
			"componentType":5126,
			"count":6677,
			"type":"VEC3"
		},
		{
			"bufferView":10,
			"componentType":5126,
			"count":6677,
			"type":"VEC2"
		},
		{
			"bufferView":11,
			"componentType":5123,
			"count":36864,
			"type":"SCALAR"
		}
	],
	"bufferViews":[
		{
			"buffer":0,
			"byteLength":158184,
			"byteOffset":0,
			"target":34962
		},
		{
			"buffer":0,
			"byteLength":158184,
			"byteOffset":158184,
			"target":34962
		},
		{
			"buffer":0,
			"byteLength":105456,
			"byteOffset":316368,
			"target":34962
		},
		{
			"buffer":0,
			"byteLength":147456,
			"byteOffset":421824,
			"target":34963
		},
		{
			"buffer":0,
			"byteLength":245328,
			"byteOffset":569280,
			"target":34962
		},
		{
			"buffer":0,
			"byteLength":245328,
			"byteOffset":814608,
			"target":34962
		},
		{
			"buffer":0,
			"byteLength":163552,
			"byteOffset":1059936,
			"target":34962
		},
		{
			"buffer":0,
			"byteLength":233832,
			"byteOffset":1223488,
			"target":34963
		},
		{
			"buffer":0,
			"byteLength":80124,
			"byteOffset":1457320,
			"target":34962
		},
		{
			"buffer":0,
			"byteLength":80124,
			"byteOffset":1537444,
			"target":34962
		},
		{
			"buffer":0,
			"byteLength":53416,
			"byteOffset":1617568,
			"target":34962
		},
		{
			"buffer":0,
			"byteLength":73728,
			"byteOffset":1670984,
			"target":34963
		}
	],
	"buffers":[
		{
			"byteLength":1744712,
			"uri":"data:application/octet-stream;base64,"
		}
	]
}
