{
	"asset":{
		"generator":"Khronos glTF Blender I/O v3.6.27",
		"version":"2.0"
	},
	"scene":0,
	"scenes":[
		{
			"name":"Scene",
			"nodes":[
				0,
				3
			]
		}
	],
	"nodes":[
		{
			"name":"Empty"
		},
		{
			"mesh":0,
			"name":"Cube.025"
		},
		{
			"mesh":1,
			"name":"Text.014",
			"rotation":[
				0.7071067094802856,
				0,
				0,
				0.7071068286895752
			],
			"scale":[
				1.5250428915023804,
				5.217326641082764,
				1.6776559352874756
			],
			"translation":[
				0.01639070361852646,
				-0.028000082820653915,
				0.9521824717521667
			]
		},
		{
			"children":[
				1,
				2
			],
			"mesh":2,
			"name":"Cube.026",
			"scale":[
				2.7090401649475098,
				2.7090401649475098,
				0.6676309704780579
			]
		}
	],
	"materials":[
		{
			"doubleSided":true,
			"name":"ready 2.031",
			"pbrMetallicRoughness":{
				"baseColorFactor":[
					0.6866855025291443,
					0.09305897355079651,
					0.9473066926002502,
					1
				],
				"metallicFactor":0,
				"roughnessFactor":0.296006441116333
			}
		},
		{
			"doubleSided":true,
			"name":"ready 2.024",
			"pbrMetallicRoughness":{
				"baseColorFactor":[
					0.06480327248573303,
					0.013702086172997952,
					0.09084172546863556,
					1
				],
				"metallicFactor":0,
				"roughnessFactor":0.296006441116333
			}
		}
	],
	"meshes":[
		{
			"name":"Mesh",
			"primitives":[
				{
					"attributes":{
						"POSITION":0,
						"NORMAL":1,
						"TEXCOORD_0":2
					},
					"indices":3,
					"material":0
				}
			]
		},
		{
			"name":"Text.016",
			"primitives":[
				{
					"attributes":{
						"POSITION":4,
						"NORMAL":5,
						"TEXCOORD_0":6
					},
					"indices":7
				}
			]
		},
		{
			"name":"Mesh",
			"primitives":[
				{
					"attributes":{
						"POSITION":8,
						"NORMAL":9,
						"TEXCOORD_0":10
					},
					"indices":11,
					"material":1
				}
			]
		}
	],
	"accessors":[
		{
			"bufferView":0,
			"componentType":5126,
			"count":13182,
			"max":[
				0.9990044832229614,
				0.9990044832229614,
				0.9661110639572144
			],
			"min":[
				-0.9990044832229614,
				-0.9990044832229614,
				-0.9661110639572144
			],
			"type":"VEC3"
		},
		{
			"bufferView":1,
			"componentType":5126,
			"count":13182,
			"type":"VEC3"
		},
		{
			"bufferView":2,
			"componentType":5126,
			"count":13182,
			"type":"VEC2"
		},
		{
			"bufferView":3,
			"componentType":5123,
			"count":73728,
			"type":"SCALAR"
		},
		{
			"bufferView":4,
			"componentType":5126,
			"count":8644,
			"max":[
				0.41463056206703186,
				0.08999998867511749,
				0.2566656470298767
			],
			"min":[
				-0.35967183113098145,
				-0.08999998867511749,
				-0.2990223169326782
			],
			"type":"VEC3"
		},
		{
			"bufferView":5,
			"componentType":5126,
			"count":8644,
			"type":"VEC3"
		},
		{
			"bufferView":6,
			"componentType":5126,
			"count":8644,
			"type":"VEC2"
		},
		{
			"bufferView":7,
			"componentType":5123,
			"count":48948,
			"type":"SCALAR"
		},
		{
			"bufferView":8,
			"componentType":5126,
			"count":6677,
			"max":[
				0.9982653260231018,
				0.9982653260231018,
				0.9982653260231018
			],
			"min":[
				-0.9982653260231018,
				-0.9982653260231018,
				-0.9982653260231018
			],
			"type":"VEC3"
		},
		{
			"bufferView":9,
			"componentType":5126,
			"count":6677,
			"type":"VEC3"
		},
		{
			"bufferView":10,
			"componentType":5126,
			"count":6677,
			"type":"VEC2"
		},
		{
			"bufferView":11,
			"componentType":5123,
			"count":36864,
			"type":"SCALAR"
		}
	],
	"bufferViews":[
		{
			"buffer":0,
			"byteLength":158184,
			"byteOffset":0,
			"target":34962
		},
		{
			"buffer":0,
			"byteLength":158184,
			"byteOffset":158184,
			"target":34962
		},
		{
			"buffer":0,
			"byteLength":105456,
			"byteOffset":316368,
			"target":34962
		},
		{
			"buffer":0,
			"byteLength":147456,
			"byteOffset":421824,
			"target":34963
		},
		{
			"buffer":0,
			"byteLength":103728,
			"byteOffset":569280,
			"target":34962
		},
		{
			"buffer":0,
			"byteLength":103728,
			"byteOffset":673008,
			"target":34962
		},
		{
			"buffer":0,
			"byteLength":69152,
			"byteOffset":776736,
			"target":34962
		},
		{
			"buffer":0,
			"byteLength":97896,
			"byteOffset":845888,
			"target":34963
		},
		{
			"buffer":0,
			"byteLength":80124,
			"byteOffset":943784,
			"target":34962
		},
		{
			"buffer":0,
			"byteLength":80124,
			"byteOffset":1023908,
			"target":34962
		},
		{
			"buffer":0,
			"byteLength":53416,
			"byteOffset":1104032,
			"target":34962
		},
		{
			"buffer":0,
			"byteLength":73728,
			"byteOffset":1157448,
			"target":34963
		}
	],
	"buffers":[
		{
			"byteLength":1231176,
			"uri":"data:application/octet-stream;base64,"
		}
	]
}
