<svg width="172" height="184" viewBox="0 0 172 184" fill="none" xmlns="http://www.w3.org/2000/svg">
<path d="M10.5365 33.7157C16.2272 25.5884 27.429 23.6133 35.5562 29.304L156.892 114.265C165.02 119.955 166.995 131.157 161.304 139.284V139.284C155.613 147.412 144.412 149.387 136.284 143.696L14.9481 58.7354C6.82088 53.0447 4.84571 41.843 10.5365 33.7157V33.7157Z" fill="white"/>
<path d="M10.304 85.7157C15.9948 77.5884 27.1965 75.6133 35.3238 81.304L104.191 129.525C112.318 135.216 114.293 146.418 108.602 154.545V154.545C102.912 162.672 91.7098 164.647 83.5825 158.957L14.7157 110.735C6.58845 105.045 4.61328 93.843 10.304 85.7157V85.7157Z" fill="white"/>
<path d="M91.6664 40.1982C97.157 32.3568 107.965 30.451 115.806 35.9417L139.685 52.6619C147.527 58.1525 149.432 68.9603 143.942 76.8018V76.8018C138.451 84.6432 127.643 86.549 119.802 81.0583L95.9229 64.3381C88.0814 58.8475 86.1757 48.0397 91.6664 40.1982V40.1982Z" fill="white"/>
<path d="M95.1432 63.8997C87.3321 57.4571 86.2228 45.9022 92.6654 38.0912L112.418 14.1432C118.86 6.33211 130.415 5.22277 138.226 11.6654V11.6654C146.037 18.108 147.147 29.6629 140.704 37.4739L120.952 61.4219C114.509 69.233 102.954 70.3423 95.1432 63.8997V63.8997Z" fill="white"/>
<path d="M10.304 134.716C15.9948 126.588 27.1965 124.613 35.3238 130.304L55.0415 144.111C63.1688 149.801 65.1439 161.003 59.4532 169.13V169.13C53.7624 177.258 42.5607 179.233 34.4334 173.542L14.7157 159.735C6.58844 154.045 4.61328 142.843 10.304 134.716V134.716Z" fill="white"/>
<ellipse cx="130.5" cy="172" rx="11.5" ry="12" fill="white"/>
</svg>
